<?xml version="1.0"?>
<svg xmlns="http://www.w3.org/2000/svg" xmlns:xlink="http://www.w3.org/1999/xlink" xmlns:svgjs="http://svgjs.com/svgjs" version="1.1" width="512" height="512" x="0" y="0" viewBox="0 0 100 100" style="enable-background:new 0 0 512 512" xml:space="preserve" class=""><g transform="matrix(1,2.4492935982947064e-16,2.4492935982947064e-16,-1,-1.4210854715202004e-14,99.93508148193358)"><path xmlns="http://www.w3.org/2000/svg" d="m86.562 42.938c-.122-.184-.318-.306-.537-.332l-7.261-.868c-.421-.052-.785.245-.834.656s.245.784.656.833l5.061.605c-5.234 3.756-36.169 24.013-69.459 4.551-.36-.211-.817-.088-1.026.269s-.089.817.269 1.026c10.752 6.286 21.264 8.525 30.787 8.525 20.944 0 37.091-10.827 40.477-13.28l-1.581 5.404c-.116.397.111.814.509.93.07.021.142.03.211.03.325 0 .624-.212.72-.54l2.104-7.188c.06-.209.025-.437-.096-.621z" fill="#212933" data-original="#000000" style=""/></g></svg>
